<svg width="24" height="24" viewBox="0 0 24 24" fill="none" xmlns="http://www.w3.org/2000/svg">
    <path d="M12 5.6a6.4 6.4 0 1 0 0 12.8 6.4 6.4 0 0 0 0-12.8zM4 12a8 8 0 1 1 16 0 8 8 0 0 1-16 0z" fill="#57C6E4"/>
    <path d="M12 13.6a.8.8 0 0 1-.8-.8V12a.8.8 0 0 1 1.6 0v.8a.8.8 0 0 1-.8.8zM10.8 15.6a1.2 1.2 0 1 1 2.4 0 1.2 1.2 0 0 1-2.4 0z" fill="#57C6E4"/>
    <path d="M12.312 8.65c-.766-.037-1.408.39-1.523 1.082a.8.8 0 1 1-1.578-.264c.285-1.708 1.843-2.48 3.177-2.417.684.032 1.386.278 1.927.783.554.518.885 1.26.885 2.166 0 1.033-.406 1.8-1.106 2.266-.643.428-1.43.534-2.094.534a.8.8 0 0 1 0-1.6c.536 0 .949-.094 1.206-.266.2-.133.394-.367.394-.934 0-.494-.17-.802-.377-.997-.222-.207-.545-.336-.911-.354z" fill="#57C6E4"/>
</svg>
